<svg version="1.1" id="Layer_1" xmlns="http://www.w3.org/2000/svg" x="0px"
     y="0px"
     width="100%" viewBox="0 0 224 224" enable-background="new 0 0 224 224" xml:space="preserve">
<path fill="#010100" opacity="1.000000" stroke="none"
      d="
M225.000000,79.000000 
    C225.000000,128.000000 225.000000,176.500000 225.000000,225.000000 
    C150.333328,225.000000 75.666664,225.000000 1.000000,225.000000 
    C1.000000,150.333328 1.000000,75.666664 1.000000,1.000000 
    C75.666664,1.000000 150.333328,1.000000 225.000000,1.000000 
    C225.000000,26.833334 225.000000,52.666668 225.000000,79.000000 
M129.213852,6.739048 
    C120.470657,6.573971 111.727470,6.408895 102.178040,6.266460 
    C79.147430,8.731090 58.676125,17.570662 41.906101,33.309242 
    C12.296275,61.097904 0.883018,95.344521 9.005214,135.457565 
    C14.919790,164.667862 31.080482,187.023605 55.867027,203.288635 
    C70.188210,212.686249 85.929726,218.091690 103.894104,219.956985 
    C112.590714,219.585556 121.287323,219.214127 130.809021,218.842636 
    C151.968323,215.621719 170.381561,206.529846 186.091904,192.184402 
    C206.883560,173.199112 218.430603,149.275833 220.591888,121.393661 
    C221.423111,110.670319 220.156128,99.493759 218.023605,88.890045 
    C213.158325,64.698120 200.050568,45.104698 181.115417,29.510103 
    C166.246017,17.263956 149.069565,9.934198 129.213852,6.739048 
z"/>
    <path fill="#FBE481" opacity="1.000000" stroke="none"
          d="
M102.967377,219.754181 
    C85.929726,218.091690 70.188210,212.686249 55.867027,203.288635 
    C31.080482,187.023605 14.919790,164.667862 9.005214,135.457565 
    C0.883018,95.344521 12.296275,61.097904 41.906101,33.309242 
    C58.676125,17.570662 79.147430,8.731090 102.939194,6.464200 
    C109.106117,6.787159 114.511620,6.925347 119.917740,7.032838 
    C123.271523,7.099522 126.626228,7.119639 129.980515,7.160658 
    C149.069565,9.934198 166.246017,17.263956 181.115417,29.510103 
    C200.050568,45.104698 213.158325,64.698120 218.023605,88.890045 
    C220.156128,99.493759 221.423111,110.670319 220.591888,121.393661 
    C218.430603,149.275833 206.883560,173.199112 186.091904,192.184402 
    C170.381561,206.529846 151.968323,215.621719 130.072479,218.621582 
    C122.635475,218.592270 115.933159,218.737427 109.235634,219.003204 
    C107.139580,219.086380 105.056435,219.494690 102.967377,219.754181 
M208.752594,129.951538 
    C209.173523,125.319809 209.860519,120.694252 209.968216,116.055252 
    C210.382217,98.221664 206.409134,81.466553 197.539169,65.870697 
    C177.470444,30.584337 140.923203,12.564960 101.356224,17.492840 
    C73.246719,20.993748 50.581627,34.980946 34.212494,58.856724 
    C20.023262,79.552925 14.847352,102.370071 18.413717,126.645439 
    C22.980917,157.733246 39.108055,181.969055 67.102905,196.974045 
    C102.718315,216.063583 137.763016,213.491547 170.650940,190.525391 
    C191.266907,176.128906 203.274582,155.380371 208.752594,129.951538 
z"/>
    <path fill="#F5EAA6" opacity="1.000000" stroke="none"
          d="
M129.597183,6.949853 
    C126.626228,7.119639 123.271523,7.099522 119.917740,7.032838 
    C114.511620,6.925347 109.106117,6.787159 103.342316,6.452878 
    C111.727470,6.408895 120.470657,6.573971 129.597183,6.949853 
z"/>
    <path fill="#F5EAA6" opacity="1.000000" stroke="none"
          d="
M103.430740,219.855591 
    C105.056435,219.494690 107.139580,219.086380 109.235634,219.003204 
    C115.933159,218.737427 122.635475,218.592270 129.659943,218.621613 
    C121.287323,219.214127 112.590714,219.585556 103.430740,219.855591 
z"/>
    <path fill="#F5C12D" opacity="1.000000" stroke="none"
          d="
M208.645081,130.372757 
    C203.274582,155.380371 191.266907,176.128906 170.650940,190.525391 
    C137.763016,213.491547 102.718315,216.063583 67.102905,196.974045 
    C39.108055,181.969055 22.980917,157.733246 18.413717,126.645439 
    C14.847352,102.370071 20.023262,79.552925 34.212494,58.856724 
    C50.581627,34.980946 73.246719,20.993748 101.356224,17.492840 
    C140.923203,12.564960 177.470444,30.584337 197.539169,65.870697 
    C206.409134,81.466553 210.382217,98.221664 209.968216,116.055252 
    C209.860519,120.694252 209.173523,125.319809 208.645081,130.372757 
M61.862469,186.779129 
    C63.354118,187.494873 64.982559,188.016541 66.316216,188.956451 
    C79.369812,198.156250 94.201401,202.128479 109.824722,202.880341 
    C124.616425,203.592163 138.681625,200.495529 152.294647,194.064163 
    C170.988205,185.232544 184.911057,171.613068 193.948242,153.537857 
    C201.408813,138.616043 204.983414,122.525856 203.183136,105.372894 
    C201.494904,89.287582 196.774017,74.364532 187.430649,61.398087 
    C170.896957,38.453140 148.114136,25.448858 119.866737,23.129356 
    C98.203804,21.350529 78.358276,27.804672 60.728291,40.090019 
    C46.823532,49.779453 36.468636,63.039158 30.388561,78.818756 
    C19.825361,106.233360 21.525438,133.131027 36.283390,158.905228 
    C42.593952,169.926376 51.459396,178.576691 61.862469,186.779129 
z"/>
    <path fill="#FFD528" opacity="1.000000" stroke="none"
          d="
M61.537598,186.615601 
    C51.459396,178.576691 42.593952,169.926376 36.283390,158.905228 
    C21.525438,133.131027 19.825361,106.233360 30.388561,78.818756 
    C36.468636,63.039158 46.823532,49.779453 60.728291,40.090019 
    C78.358276,27.804672 98.203804,21.350529 119.866737,23.129356 
    C148.114136,25.448858 170.896957,38.453140 187.430649,61.398087 
    C196.774017,74.364532 201.494904,89.287582 203.183136,105.372894 
    C204.983414,122.525856 201.408813,138.616043 193.948242,153.537857 
    C184.911057,171.613068 170.988205,185.232544 152.294647,194.064163 
    C138.681625,200.495529 124.616425,203.592163 109.824722,202.880341 
    C94.201401,202.128479 79.369812,198.156250 66.316216,188.956451 
    C64.982559,188.016541 63.354118,187.494873 61.537598,186.615601 
M135.621460,76.553726 
    C135.069916,76.366989 134.518356,76.180252 133.438202,75.550400 
    C132.782257,75.072350 132.189346,74.441360 131.460220,74.140869 
    C126.395836,72.053673 126.270332,71.434090 129.944977,67.500893 
    C131.406143,65.936920 132.637543,64.160255 134.006210,62.507481 
    C136.741119,59.204853 136.489304,55.560257 134.377136,52.334621 
    C132.239716,49.070435 128.755173,48.157566 124.029823,49.015469 
    C119.696945,48.313244 115.758354,48.885521 112.585052,52.310051 
    C97.653122,68.424126 82.497368,84.336571 67.820251,100.679092 
    C56.840954,112.904221 57.643097,129.839661 69.170395,141.665390 
    C74.516670,147.150070 80.339119,152.197449 85.409416,157.918365 
    C94.282913,167.930481 104.972733,173.080521 119.383606,171.938416 
    C127.375938,171.381668 134.563889,168.907776 140.361252,163.127350 
    C143.528137,159.969711 146.514191,156.602142 149.898941,153.699005 
    C153.900558,150.266754 155.718246,146.206345 155.706009,140.994598 
    C156.666138,140.714432 157.626282,140.434265 158.586426,140.154099 
    C158.391830,139.552261 158.197250,138.950424 158.002655,138.348602 
    C156.669479,138.897934 155.336304,139.447281 153.479248,139.552292 
    C150.987991,138.346420 148.496750,137.140564 146.042358,135.228394 
    C150.466705,131.812576 155.303421,130.944397 160.701538,133.465332 
    C160.850815,131.934631 160.943924,130.979843 161.827850,130.013367 
    C166.666153,130.245361 170.241592,127.584579 171.266434,123.456459 
    C171.920670,120.821152 170.640442,116.587280 168.666229,114.727577 
    C166.630981,112.810379 162.702820,112.902649 159.281799,112.150009 
    C159.281799,112.150009 159.002441,111.988113 159.005157,111.166740 
    C158.334488,108.438797 157.663834,105.710854 157.022476,102.222244 
    C157.347610,100.483627 157.672729,98.745018 158.365387,96.630295 
    C157.922363,96.088356 157.479355,95.546425 156.904785,94.323792 
    C149.937531,88.544807 142.970276,82.765831 135.998779,77.000786 
    C135.998779,77.000786 136.012772,76.997849 135.621460,76.553726 
z"/>
    <path fill="#FEF8BB" opacity="1.000000" stroke="none"
          d="
M118.459236,171.926086 
    C104.972733,173.080521 94.282913,167.930481 85.409416,157.918365 
    C80.339119,152.197449 74.516670,147.150070 69.170395,141.665390 
    C57.643097,129.839661 56.840954,112.904221 67.820251,100.679092 
    C82.497368,84.336571 97.653122,68.424126 112.585052,52.310051 
    C115.758354,48.885521 119.696945,48.313244 124.644577,49.354881 
    C130.773682,55.657970 130.740356,59.596298 125.130844,65.466248 
    C123.991638,66.658356 122.589104,67.713951 121.837692,69.116302 
    C121.418571,69.898537 121.697243,71.841934 122.333832,72.276039 
    C126.793533,75.317139 131.428665,78.100967 136.177628,81.155006 
    C136.611435,81.552986 136.875320,81.763069 137.267731,82.274864 
    C141.281708,85.675713 145.167114,88.774849 149.156494,92.104752 
    C149.513077,92.553925 149.765732,92.772331 150.096924,93.383728 
    C152.850098,99.499191 149.921539,103.412422 145.680145,106.985542 
    C145.447083,106.994080 145.020355,107.182312 144.604828,107.135895 
    C141.166122,106.015594 137.760315,105.502426 135.197571,103.753754 
    C129.457626,99.837112 124.327896,95.020142 118.553391,91.163094 
    C116.193550,89.586845 112.807755,89.546608 109.483154,88.783478 
    C106.616173,89.561523 103.470390,89.663734 101.810997,91.286171 
    C94.365158,98.566154 87.323341,106.260963 80.198334,113.864738 
    C79.559395,114.546616 79.253883,115.616737 78.989098,116.561371 
    C76.937614,123.880302 81.104210,128.360184 86.380783,132.700714 
    C92.288094,138.824951 97.850693,144.891266 104.028168,150.248566 
    C106.236656,152.163834 109.932175,152.364426 113.296341,153.449249 
    C116.171494,152.435089 119.061668,151.771591 121.145592,150.101868 
    C124.628693,147.311050 127.795013,144.049881 130.733093,140.672180 
    C134.726212,136.081635 139.327621,134.707687 145.194443,137.171005 
    C149.892395,143.117569 150.118271,146.708893 145.528488,151.551041 
    C137.669189,159.842529 129.981659,168.460983 118.459236,171.926086 
z"/>
    <path fill="#FDD52E" opacity="1.000000" stroke="none"
          d="
M109.888702,88.807579 
    C112.807755,89.546608 116.193550,89.586845 118.553391,91.163094 
    C124.327896,95.020142 129.457626,99.837112 135.197571,103.753754 
    C137.760315,105.502426 141.166122,106.015594 144.634018,107.503105 
    C148.018585,112.863983 152.198669,107.423103 155.405807,110.131607 
    C155.638458,109.668983 155.871124,109.206352 156.103775,108.743729 
    C155.400589,107.828003 154.697403,106.912277 154.141678,105.725655 
    C155.190475,104.630798 156.091827,103.806854 156.993179,102.982910 
    C157.663834,105.710854 158.334488,108.438797 158.535095,111.594757 
    C146.098495,112.011246 134.131912,111.985207 122.165382,111.994530 
    C116.515213,111.998932 110.851608,111.845726 105.219139,112.182579 
    C100.556496,112.461418 97.201431,116.299316 97.072906,120.723831 
    C96.946655,125.070015 99.694870,128.574432 104.265182,129.538361 
    C106.193474,129.945053 108.222130,129.994278 110.205811,130.000565 
    C122.172844,130.038467 134.141037,130.104858 146.106750,129.972839 
    C151.063782,129.918137 156.015656,129.396225 160.985901,129.321426 
    C161.001938,129.556046 161.037033,130.025055 161.037033,130.025055 
    C160.943924,130.979843 160.850815,131.934631 160.701538,133.465332 
    C155.303421,130.944397 150.466705,131.812576 145.828003,135.707581 
    C145.364670,136.377380 145.159164,136.606918 144.997116,136.875351 
    C139.327621,134.707687 134.726212,136.081635 130.733093,140.672180 
    C127.795013,144.049881 124.628693,147.311050 121.145592,150.101868 
    C119.061668,151.771591 116.171494,152.435089 113.176186,153.192917 
    C105.143517,145.553543 97.578377,138.272110 89.844925,130.692719 
    C88.119728,127.400040 85.899216,124.560219 85.156021,121.375633 
    C83.933067,116.135307 87.367683,112.337128 90.727852,108.810883 
    C97.097404,102.126541 103.499901,95.473579 109.888702,88.807579 
z"/>
    <path fill="#FFF8BA" opacity="1.000000" stroke="none"
          d="
M160.969864,129.086807 
    C156.015656,129.396225 151.063782,129.918137 146.106750,129.972839 
    C134.141037,130.104858 122.172844,130.038467 110.205811,130.000565 
    C108.222130,129.994278 106.193474,129.945053 104.265182,129.538361 
    C99.694870,128.574432 96.946655,125.070015 97.072906,120.723831 
    C97.201431,116.299316 100.556496,112.461418 105.219139,112.182579 
    C110.851608,111.845726 116.515213,111.998932 122.165382,111.994530 
    C134.131912,111.985207 146.098495,112.011246 158.533752,112.005447 
    C159.002441,111.988113 159.281799,112.150009 159.690063,112.401878 
    C166.962051,117.569489 167.259781,123.183327 160.969864,129.086807 
z"/>
    <path fill="#EFBC24" opacity="1.000000" stroke="none"
          d="
M145.194443,137.171005 
    C145.159164,136.606918 145.364670,136.377380 145.809570,136.060730 
    C148.496750,137.140564 150.987991,138.346420 153.868958,139.976349 
    C154.460892,140.653320 154.706329,140.853256 154.994934,141.000198 
    C155.718246,146.206345 153.900558,150.266754 149.898941,153.699005 
    C146.514191,156.602142 143.528137,159.969711 140.361252,163.127350 
    C134.563889,168.907776 127.375938,171.381668 118.921417,171.932251 
    C129.981659,168.460983 137.669189,159.842529 145.528488,151.551041 
    C150.118271,146.708893 149.892395,143.117569 145.194443,137.171005 
z"/>
    <path fill="#EEBE2E" opacity="1.000000" stroke="none"
          d="
M136.007690,80.967102 
    C131.428665,78.100967 126.793533,75.317139 122.333832,72.276039 
    C121.697243,71.841934 121.418571,69.898537 121.837692,69.116302 
    C122.589104,67.713951 123.991638,66.658356 125.130844,65.466248 
    C130.740356,59.596298 130.773682,55.657970 125.081055,49.393494 
    C128.755173,48.157566 132.239716,49.070435 134.377136,52.334621 
    C136.489304,55.560257 136.741119,59.204853 134.006210,62.507481 
    C132.637543,64.160255 131.406143,65.936920 129.944977,67.500893 
    C126.270332,71.434090 126.395836,72.053673 131.460220,74.140869 
    C132.189346,74.441360 132.782257,75.072350 133.900421,75.992523 
    C134.912689,76.622383 135.462723,76.810120 136.012772,76.997849 
    C136.012772,76.997849 135.998779,77.000786 135.997803,77.392357 
    C136.000427,78.844986 136.004059,79.906044 136.007690,80.967102 
z"/>
    <path fill="#F3BB1B" opacity="1.000000" stroke="none"
          d="
M136.177628,81.154999 
    C136.004059,79.906044 136.000427,78.844986 135.999908,77.385391 
    C142.970276,82.765831 149.937531,88.544807 157.000534,94.951889 
    C157.396805,96.055466 157.697342,96.530937 157.997864,97.006409 
    C157.672729,98.745018 157.347610,100.483627 157.007828,102.602577 
    C156.091827,103.806854 155.190475,104.630798 153.797729,105.776344 
    C152.189575,106.389458 151.072800,106.680969 150.032654,106.607285 
    C150.877777,103.917244 151.736465,101.617447 152.390594,99.260864 
    C153.113220,96.657509 153.962418,93.882210 150.018372,92.990738 
    C149.765732,92.772331 149.513077,92.553925 149.135712,91.749153 
    C146.491837,86.241737 142.567734,83.135681 137.139191,81.973152 
    C136.875320,81.763069 136.611435,81.552986 136.177628,81.154999 
z"/>
    <path fill="#EFBD24" opacity="1.000000" stroke="none"
          d="
M160.985901,129.321426 
    C167.259781,123.183327 166.962051,117.569489 159.850586,112.384735 
    C162.702820,112.902649 166.630981,112.810379 168.666229,114.727577 
    C170.640442,116.587280 171.920670,120.821152 171.266434,123.456459 
    C170.241592,127.584579 166.666153,130.245361 161.432434,130.019211 
    C161.037033,130.025055 161.001938,129.556046 160.985901,129.321426 
z"/>
    <path fill="#FDD52E" opacity="1.000000" stroke="none"
          d="
M155.350464,140.997406 
    C154.706329,140.853256 154.460892,140.653320 154.130890,140.198502 
    C155.336304,139.447281 156.669479,138.897934 158.002655,138.348602 
    C158.197250,138.950424 158.391830,139.552261 158.586426,140.154099 
    C157.626282,140.434265 156.666138,140.714432 155.350464,140.997406 
z"/>
    <path fill="#FDD52E" opacity="1.000000" stroke="none"
          d="
M158.181625,96.818352 
    C157.697342,96.530937 157.396805,96.055466 157.066315,95.292236 
    C157.479355,95.546425 157.922363,96.088356 158.181625,96.818352 
z"/>
    <path fill="#F3BB1B" opacity="1.000000" stroke="none"
          d="
M135.817108,76.775787 
    C135.462723,76.810120 134.912689,76.622383 134.164734,76.214081 
    C134.518356,76.180252 135.069916,76.366989 135.817108,76.775787 
z"/>
    <path fill="#F0BC25" opacity="1.000000" stroke="none"
          d="
M109.483154,88.783478 
    C103.499901,95.473579 97.097404,102.126541 90.727852,108.810883 
    C87.367683,112.337128 83.933067,116.135307 85.156021,121.375633 
    C85.899216,124.560219 88.119728,127.400040 89.486450,130.855530 
    C88.290436,131.665222 87.284576,132.014099 86.278717,132.362991 
    C81.104210,128.360184 76.937614,123.880302 78.989098,116.561371 
    C79.253883,115.616737 79.559395,114.546616 80.198334,113.864738 
    C87.323341,106.260963 94.365158,98.566154 101.810997,91.286171 
    C103.470390,89.663734 106.616173,89.561523 109.483154,88.783478 
z"/>
    <path fill="#EFBA24" opacity="1.000000" stroke="none"
          d="
M86.380783,132.700714 
    C87.284576,132.014099 88.290436,131.665222 89.654770,131.153503 
    C97.578377,138.272110 105.143517,145.553543 112.828812,153.091309 
    C109.932175,152.364426 106.236656,152.163834 104.028168,150.248566 
    C97.850693,144.891266 92.288094,138.824951 86.380783,132.700714 
z"/>
    <path fill="#FED424" opacity="1.000000" stroke="none"
          d="
M149.956039,106.972488 
    C151.072800,106.680969 152.189575,106.389458 153.650269,106.047249 
    C154.697403,106.912277 155.400589,107.828003 156.103775,108.743729 
    C155.871124,109.206352 155.638458,109.668983 155.405807,110.131607 
    C152.198669,107.423103 148.018585,112.863983 145.049545,107.549515 
    C145.020355,107.182312 145.447083,106.994080 146.086609,106.998672 
    C147.802765,106.993004 148.879395,106.982750 149.956039,106.972488 
z"/>
    <path fill="#EEBE2E" opacity="1.000000" stroke="none"
          d="
M150.032654,106.607285 
    C148.879395,106.982750 147.802765,106.993004 146.319656,106.990128 
    C149.921539,103.412422 152.850098,99.499191 150.096924,93.383728 
    C153.962418,93.882210 153.113220,96.657509 152.390594,99.260864 
    C151.736465,101.617447 150.877777,103.917244 150.032654,106.607285 
z"/>
    <path fill="#EEBE2E" opacity="1.000000" stroke="none"
          d="
M137.267731,82.274864 
    C142.567734,83.135681 146.491837,86.241737 149.031769,91.518387 
    C145.167114,88.774849 141.281708,85.675713 137.267731,82.274864 
z"/>
</svg>